<?xml version="1.0" encoding="UTF-8" standalone="no"?>
<svg
   xmlns:dc="http://purl.org/dc/elements/1.1/"
   xmlns:cc="http://creativecommons.org/ns#"
   xmlns:rdf="http://www.w3.org/1999/02/22-rdf-syntax-ns#"
   xmlns:svg="http://www.w3.org/2000/svg"
   xmlns="http://www.w3.org/2000/svg"
   id="svg8"
   version="1.1"
   viewBox="0 0 132.29166 132.29167"
   height="500"
   width="500">
  <defs
     id="defs2" />
  <metadata
     id="metadata5">
    <rdf:RDF>
      <cc:Work
         rdf:about="">
        <dc:format>image/svg+xml</dc:format>
        <dc:type
           rdf:resource="http://purl.org/dc/dcmitype/StillImage" />
        <dc:title></dc:title>
      </cc:Work>
    </rdf:RDF>
  </metadata>
  <g
     transform="translate(0,-164.70832)"
     id="layer1">
    <path
       id="path869"
       d="m 55.942322,174.96558 c -8.415931,-0.0835 -18.23139,1.29591 -29.377537,4.60024 -0.627803,0.18624 -1.058386,0.76315 -1.058332,1.418 v 101.97879 c 2.71e-4,0.81641 0.662039,1.4782 1.478461,1.47846 H 62.316608 C 50.0665,282.08611 39.863013,275.0186 36.691815,265.63395 32.618073,253.57833 41.811302,240.21483 58.6512,237.27651 c 1.696016,-0.29592 3.412895,-0.46194 5.127852,-0.50747 12.004696,-0.31865 23.829103,5.33367 26.43818,14.66267 2.312805,8.26964 -4.261612,17.42099 -16.109095,18.94562 -8.709105,1.12075 -18.388917,-2.90011 -19.490283,-10.02833 -0.507335,-3.05176 5.651519,-3.58047 6.085933,-0.52245 0.650978,4.21323 6.813992,6.75921 12.363069,6.04511 8.107838,-1.04339 12.806497,-7.59323 11.152809,-13.50615 -2.223122,-7.94897 -13.76793,-12.45362 -24.175786,-10.6376 -13.276289,2.31652 -20.688868,13.09456 -17.41289,22.78931 2.839894,8.40423 13.089604,13.17162 24.302391,15.96595 4.636148,1.15537 10.551076,2.00774 16.448093,2.31872 19.859237,-5.03915 30.375897,-21.66878 24.814507,-36.63445 -4.61277,-12.41289 -18.882393,-21.38987 -35.420579,-23.66884 0.299879,-0.11625 0.596382,-0.23504 0.889352,-0.35554 7.201752,-2.96227 12.315957,-7.19697 15.316377,-12.01839 4.000566,-6.42855 4.122243,-13.90971 0.468704,-20.21271 -4.566919,-7.87875 -14.720236,-13.88487 -29.986281,-14.82236 -1.144953,-0.0703 -2.318957,-0.11209 -3.521231,-0.12402 z m -3.723288,15.17685 c 2.013862,0 3.675745,1.66189 3.675745,3.67575 0,2.01386 -1.661883,3.67367 -3.675745,3.67367 -2.013863,0 -3.673677,-1.65981 -3.673677,-3.67367 0,-2.01386 1.659814,-3.67575 3.673677,-3.67575 z m 0,2.64635 c -0.583949,0 -1.029394,0.44545 -1.029394,1.0294 -5e-6,0.58395 0.445445,1.02888 1.029394,1.02888 0.583948,0 1.029395,-0.44493 1.029395,-1.02888 0,-0.58395 -0.445447,-1.0294 -1.029395,-1.0294 z"
    />
  </g>
</svg>
